<svg width="346" height="313" viewBox="0 0 346 313" fill="none" xmlns="http://www.w3.org/2000/svg">
<path d="M81.2512 243.768C78.6181 220.393 74.9505 174.954 84.2199 161.161C84.2199 161.161 128.023 176.745 152.243 167.355C152.243 167.355 197.812 161.095 187.138 120.405C187.138 120.405 180.878 96.0315 133.691 98.8266L94.3784 100.426C94.3784 100.426 121.1 48.4149 169.54 57.8049C169.54 57.8049 238.74 54.6749 235.28 142.315L231.747 256.66L98.6238 257.799C89.6901 257.878 82.1542 251.809 81.2512 243.768Z" fill="#1E1145"/>
<path d="M81.9363 162.294L79.58 178.41C79.58 178.41 92.0118 234.916 136.265 235.417C136.265 235.417 185.221 244.275 199.87 216.039C199.87 216.039 220.779 182.808 222.838 149.31C222.838 149.31 231.156 88.1752 202.078 65.9992C202.078 65.9992 136.338 32.3016 95.8489 95.9658L81.9363 162.294Z" fill="#3C2767"/>
<path d="M69.2 122.07C69.2 122.07 58.82 169.02 128.02 169.02C128.02 169.02 211.06 168.635 183.38 112.489C183.38 112.489 186.84 93.9 121.1 97.03C121.1 97.03 86.5 90.77 69.2 122.07Z" fill="#6475A5"/>
<path d="M96.88 100.16C96.88 100.16 69.2 112.68 72.66 122.07C72.66 122.07 74.6288 143.698 138.4 140.85C138.4 140.85 166.08 140.85 176.405 120.139C176.405 120.139 186.84 100.16 134.94 97.03L96.88 100.16Z" fill="#78A2D2"/>
<path d="M140.182 107.528C130.387 102.057 101.24 106.232 92.1986 114.411C89.704 116.668 88.7179 118.881 89.268 120.987C89.8735 123.313 92.3301 125.322 96.3472 126.533C100.337 127.738 106.457 128.665 112.139 128.681C114.28 128.687 118.287 128.696 120.422 128.53C123.269 128.308 128.373 127.522 131.573 126.283C133.892 125.385 136.774 123.81 138.421 122.737C140.926 121.103 142.573 118.542 143.503 116.013C144.808 112.467 143.628 109.456 140.182 107.528Z" fill="#C7DFF1"/>
<path d="M231.82 253.53L235.28 131.46C235.28 131.46 280.26 122.07 280.26 172.15C280.26 172.15 280.26 214.649 275.842 239.711C274.132 249.414 264.302 256.203 253.487 255.314L231.82 253.53Z" fill="#1E1145"/>
<path d="M232.996 158.397C232.996 158.397 262.922 150.005 276.502 172.382L273.34 147.11L256.04 131.46H235.28L232.996 158.397Z" fill="#3C2767"/>
<path d="M167.959 130.468C167.509 130.468 167.059 130.308 166.72 129.998C166.052 129.379 166.066 128.386 166.748 127.785C172.27 122.906 174.879 117.294 173.903 112.386C172.91 107.384 168.166 103.046 160.184 99.8345C159.312 99.4839 158.918 98.5574 159.305 97.7687C159.693 96.9768 160.717 96.6262 161.589 96.9736C173.059 101.587 176.47 107.603 177.308 111.832C178.488 117.779 175.519 124.411 169.163 130.023C168.831 130.321 168.395 130.468 167.959 130.468Z" fill="#1F212B"/>
<path d="M148.576 139.46C147.745 139.46 147.012 138.919 146.87 138.152C146.714 137.301 147.351 136.493 148.292 136.352C152.133 135.773 156.413 134.336 160.039 132.412C160.862 131.97 161.921 132.221 162.405 132.969C162.89 133.71 162.613 134.671 161.79 135.11C157.814 137.225 153.102 138.803 148.86 139.442C148.766 139.454 148.669 139.46 148.576 139.46Z" fill="#1F212B"/>
<path d="M96.0565 212.399C95.4856 212.399 94.9286 212.145 94.5964 211.679C92.3682 208.533 90.2714 205.068 88.3649 201.375C87.9601 200.592 88.3338 199.66 89.1988 199.293C90.0673 198.93 91.0949 199.265 91.4997 200.048C93.3439 203.616 95.368 206.959 97.5132 209.992C98.0287 210.718 97.7934 211.688 96.9873 212.151C96.7001 212.32 96.3748 212.399 96.0565 212.399Z" fill="#1F212B"/>
<path d="M86.7837 195.597C86.0917 195.597 85.4343 195.218 85.1714 194.598C81.5453 186.144 79.6284 178.779 78.5974 174.826C78.2963 173.671 78.0887 172.851 77.94 172.454C77.6389 171.634 78.1268 170.748 79.0333 170.472C79.9398 170.197 80.919 170.648 81.22 171.461C81.3827 171.909 81.6249 172.817 81.9605 174.106C82.9708 177.987 84.8565 185.215 88.3926 193.468C88.7386 194.276 88.2957 195.181 87.4065 195.49C87.2024 195.562 86.9913 195.597 86.7837 195.597Z" fill="#1F212B"/>
<path d="M266.441 161.774C266.129 161.774 265.811 161.699 265.527 161.539C263.109 160.171 260.375 159.098 257.403 158.337C256.483 158.103 255.95 157.236 256.21 156.403C256.469 155.57 257.431 155.098 258.344 155.323C261.628 156.168 264.662 157.361 267.354 158.882C268.164 159.339 268.413 160.306 267.908 161.038C267.583 161.514 267.019 161.774 266.441 161.774Z" fill="#1F212B"/>
<path d="M277.828 147.126C273.769 135.767 261.936 128.139 248.383 128.139H238.74C238.643 128.139 238.546 128.142 238.453 128.148C234.505 65.4827 191.248 56.8345 187.574 56.2211C121.688 41.3661 94.6033 89.9218 90.697 97.7812C75.7567 105.735 67.335 115.469 65.6708 126.737C63.356 142.359 74.8571 155.824 79.099 160.19C72.3278 179.549 75.3761 219.901 77.8707 242.706C78.9226 252.337 87.8009 259.599 98.5166 259.599C99.4715 259.602 177.031 259.821 228.44 259.821C240.152 259.821 250.514 259.809 258.296 259.781C268.728 259.743 277.544 252.66 278.807 243.298C282.218 217.958 286.637 171.762 277.828 147.126ZM72.532 127.532C72.57 127.285 72.6565 127.047 72.7015 126.803C78.1406 132.897 91.9702 141.207 127.01 141.207C131.117 141.207 135.518 141.091 140.23 140.847C141.185 140.797 141.912 140.058 141.857 139.197C141.801 138.333 140.981 137.661 140.03 137.723C90.9288 140.274 77.4555 128.277 73.8814 122.749C76.7705 115.347 83.7078 108.702 94.6621 102.949C115.588 99.5903 169.99 95.2647 180.283 113.885C186.878 125.82 186.605 138.728 179.543 148.412C170.402 160.954 150.942 167.095 124.941 165.712C116.592 164.873 93.3819 161.674 85.2232 156.97C83.251 155.066 70.366 142.002 72.532 127.532ZM228.443 253.561C228.44 253.561 228.433 253.561 228.429 253.561C177.038 253.561 99.4854 253.342 98.5235 253.339C91.3751 253.339 85.4551 248.503 84.7561 242.087C82.8497 224.634 79.2859 183.684 85.1056 163.956C98.1256 169.255 123.027 171.821 124.363 171.953C126.92 172.091 129.418 172.156 131.861 172.156C156.876 172.156 175.706 165.057 185.328 151.861C193.76 140.287 194.189 125.044 186.477 111.087C174.01 88.5383 118.623 93.49 99.347 95.9564C105.907 84.8199 124.972 59.6891 163.53 59.6891C170.485 59.6891 178.079 60.5092 186.338 62.3715C187.252 62.4967 198.234 64.2057 209.178 73.9494C234.498 114.192 216.721 181.953 209.489 196.345C190.203 234.728 178.982 234.687 148.998 234.568L143.59 234.556C127.155 234.556 113.298 228.362 102.402 216.152C101.804 215.479 100.714 215.372 99.9698 215.92C99.2259 216.461 99.1117 217.447 99.7103 218.12C111.298 231.1 126.058 237.686 143.593 237.686L148.984 237.698C150.607 237.708 152.181 237.714 153.707 237.714C181.072 237.714 193.497 235.742 212.638 197.644C219.35 184.282 234.927 125.857 218.219 84.294C225.838 95.4681 231.82 112.245 231.82 137.445L228.443 253.561ZM271.935 242.541C271.094 248.776 265.219 253.496 258.268 253.521C252.064 253.543 244.228 253.555 235.366 253.558L238.162 157.433C240.875 157.076 245.532 156.678 250.777 157.189C251.725 157.264 252.58 156.657 252.684 155.802C252.788 154.944 252.099 154.171 251.151 154.077C245.871 153.558 241.228 153.893 238.256 154.256L238.74 137.526C238.74 136.471 238.73 135.423 238.709 134.396C238.719 134.396 238.73 134.396 238.74 134.396H248.383C258.922 134.396 268.108 140.287 271.243 149.051C272.852 153.555 273.98 158.91 274.734 164.766C274.122 164.159 273.482 163.561 272.779 162.979C272.074 162.394 270.977 162.441 270.333 163.076C269.686 163.715 269.738 164.707 270.441 165.289C272.482 166.979 274.074 168.773 275.385 170.932C277.471 196.001 273.963 227.507 271.935 242.541Z" fill="#1F212B"/>
<path d="M120.401 128.512C119.522 128.512 118.768 127.911 118.681 127.1C118.588 126.242 119.283 125.472 120.232 125.388C123.941 125.059 127.252 124.411 130.075 123.466C130.971 123.159 131.964 123.579 132.3 124.389C132.632 125.2 132.175 126.101 131.279 126.402C128.179 127.441 124.574 128.152 120.574 128.508C120.515 128.508 120.456 128.512 120.401 128.512Z" fill="#1F212B"/>
<path d="M111.838 128.724C111.817 128.724 111.793 128.724 111.772 128.724C106.094 128.527 100.323 127.698 96.3333 126.493C92.3197 125.281 89.877 123.413 89.268 121.084C88.7179 118.978 89.704 116.765 92.1986 114.508C101.24 106.329 130.387 102.148 140.182 107.625C143.628 109.553 144.808 112.564 143.503 116.11C142.573 118.64 140.912 120.843 138.563 122.658C137.836 123.222 136.746 123.14 136.123 122.486C135.501 121.829 135.587 120.843 136.314 120.28C138.175 118.837 139.49 117.103 140.22 115.121C141.023 112.946 140.448 111.456 138.362 110.289C129.906 105.562 102.53 109.591 94.6448 116.724C93.5515 117.71 92.3163 119.143 92.638 120.367C92.946 121.547 94.6933 122.696 97.4301 123.522C101.125 124.637 106.537 125.413 111.907 125.594C112.862 125.629 113.606 126.355 113.571 127.219C113.533 128.061 112.765 128.724 111.838 128.724Z" fill="#1F212B"/>
</svg>
